# Blender v2.77 (sub 0) OBJ File: ''
# www.blender.org
mtllib Gigantic mace.mtl
o n0b0
v 0.009221 0.033628 0.262622
v 0.009221 0.033628 0.262622
v -0.058248 -0.038769 0.260266
v -0.058248 -0.038769 0.260266
v 0.024686 -0.000656 -1.089497
v 0.006690 -0.017006 -1.090522
v 0.005388 0.014589 -1.090596
v 0.005388 0.014589 -1.090596
v -0.012609 -0.001760 -1.091620
v -0.012609 -0.001760 -1.091620
v -0.063131 0.101138 0.260096
v -0.063131 0.101138 0.260096
v -0.130600 0.028742 0.257740
v -0.130600 0.028742 0.257740
v -0.050306 -0.184829 0.704233
v -0.272724 0.022706 0.696466
v -0.065316 0.245259 0.703709
v -0.075372 0.316718 0.920175
v 0.220955 0.040220 0.930523
v -0.055374 -0.256287 0.920873
v -0.333118 0.020860 0.911174
v -0.074671 0.030216 1.186766
v -0.065000 -0.114158 1.054294
v -0.256146 0.023713 1.047618
v -0.076537 0.216437 1.053891
v 0.116070 0.036719 1.060617
v -0.336419 0.020699 0.873714
v -0.335011 0.059795 0.911108
v -0.096536 -0.125217 1.053192
v -0.063046 -0.160095 1.044308
v -0.015653 -0.104623 1.056017
v -0.074374 0.266577 0.941770
v -0.293052 0.022286 0.934133
v -0.057630 -0.208191 0.937328
v 0.170093 0.038470 0.950307
v 0.091151 0.009127 -1.185224
v 0.017587 -0.069809 -1.187793
v -0.061301 0.003800 -1.190548
v 0.012263 0.082735 -1.187979
v 0.008831 0.082735 -1.089689
v 0.087719 0.009126 -1.086934
v 0.014155 -0.069809 -1.089503
v -0.064733 0.003800 -1.092258
v -0.004296 -0.046040 -0.097805
v -0.059257 0.005243 -0.099724
v -0.059257 0.005243 -0.099724
v -0.008005 0.060237 -0.097934
v -0.008005 0.060237 -0.097934
v 0.046956 0.008954 -0.096015
v -0.113374 0.028234 0.669371
v -0.073628 -0.008853 0.670759
v -0.036564 0.030918 0.672053
v -0.076310 0.068004 0.670665
v -0.066368 -0.170301 0.624396
v -0.273099 0.022596 0.617176
v -0.080319 0.229453 0.623909
v 0.127066 0.065434 0.720174
v 0.127066 0.065434 0.720174
v 0.127066 0.065434 0.720174
v 0.122289 0.036503 0.705535
v 0.122289 0.036503 0.705535
v 0.129047 0.007985 0.720244
v 0.129047 0.007985 0.720244
v 0.177101 0.038506 0.780080
v 0.177101 0.038506 0.780080
v 0.102860 0.010919 0.620558
v 0.102860 0.010919 0.620558
v 0.091010 0.035328 0.637318
v 0.091010 0.035328 0.637318
v 0.094070 0.067052 0.620251
v 0.094070 0.067052 0.620251
v 0.094070 0.067052 0.620251
v 0.097013 0.035420 0.540728
v 0.097013 0.035420 0.540728
v -0.023358 -0.001772 -0.442001
v -0.023358 -0.001772 -0.442001
v -0.001989 0.017642 -0.440784
v -0.001989 0.017642 -0.440784
v 0.020927 -0.000461 -0.439480
v -0.000442 -0.019875 -0.440696
v -0.058893 -0.002676 0.244459
v -0.091963 0.028866 0.243284
v -0.091963 0.028866 0.243284
v -0.061130 0.061442 0.244366
v -0.061130 0.061442 0.244366
v -0.027995 0.031388 0.245513
v -0.061441 0.103573 0.228966
v -0.061441 0.103573 0.228966
v -0.135579 0.024582 0.226771
v -0.135579 0.024582 0.226771
v -0.056114 -0.049491 0.229439
v 0.015447 0.033382 0.231545
v -0.140612 -0.066105 0.748557
v -0.140612 -0.066105 0.748557
v -0.140612 -0.066105 0.748557
v -0.138046 -0.124149 0.874069
v -0.138046 -0.124149 0.874069
v -0.201900 -0.048897 0.873553
v -0.201900 -0.048897 0.873553
v -0.349288 -0.324340 0.773376
v 0.085464 -0.056876 0.885143
v 0.085464 -0.056876 0.885143
v 0.085464 -0.056876 0.885143
v 0.019404 -0.124041 0.882308
v 0.019404 -0.124041 0.882308
v 0.031610 -0.066662 0.747874
v 0.031610 -0.066662 0.747874
v 0.230671 -0.264292 0.796799
v 0.030050 0.196312 0.883235
v 0.030050 0.196312 0.883235
v 0.030050 0.196312 0.883235
v 0.103945 0.123544 0.885234
v 0.103945 0.123544 0.885234
v 0.047435 0.137808 0.757160
v 0.047435 0.137808 0.757160
v 0.201423 0.348610 0.778280
v -0.202924 0.104700 0.875072
v -0.202924 0.104700 0.875072
v -0.202924 0.104700 0.875072
v -0.136827 0.171865 0.876852
v -0.136827 0.171865 0.876852
v -0.146698 0.124115 0.755439
v -0.146698 0.124115 0.755439
v -0.298306 0.261608 0.773776
v -0.179596 -0.088743 0.946465
v -0.179596 -0.088743 0.946465
v -0.179596 -0.088743 0.946465
v -0.117656 -0.078895 1.037188
v -0.117656 -0.078895 1.037188
v -0.158546 -0.025404 0.987138
v -0.158546 -0.025404 0.987138
v -0.338998 -0.168282 1.059279
v 0.046266 -0.036418 1.040548
v 0.046266 -0.036418 1.040548
v 0.046266 -0.036418 1.040548
v -0.003435 -0.086965 1.038213
v -0.003435 -0.086965 1.038213
v 0.044908 -0.084207 0.950098
v 0.044908 -0.084207 0.950098
v 0.164932 -0.136661 1.105591
v -0.001535 0.142275 1.038878
v -0.001535 0.142275 1.038878
v -0.001535 0.142275 1.038878
v 0.048994 0.092514 1.040044
v 0.048994 0.092514 1.040044
v 0.054733 0.154848 0.952256
v 0.054733 0.154848 0.952256
v 0.203627 0.304270 1.072367
v -0.170738 0.085185 1.032969
v -0.170738 0.085185 1.032969
v -0.170738 0.085185 1.032969
v -0.120995 0.135733 1.034108
v -0.120995 0.135733 1.034108
v -0.160435 0.127162 0.942928
v -0.160435 0.127162 0.942928
v -0.328895 0.232193 1.058303
v -0.088611 -0.012654 0.409193
v -0.088611 -0.012654 0.409193
v -0.088611 -0.012654 0.409193
v -0.083226 -0.078738 0.530832
v -0.083226 -0.078738 0.530832
v -0.162514 -0.007808 0.530124
v -0.162514 -0.007808 0.530124
v -0.217180 -0.146583 0.452528
v 0.055123 -0.016095 0.527928
v 0.055123 -0.016095 0.527928
v 0.055123 -0.016095 0.527928
v -0.015178 -0.091644 0.525066
v -0.015178 -0.091644 0.525066
v -0.014435 -0.020578 0.410391
v -0.014435 -0.020578 0.410391
v 0.117168 -0.281094 0.434208
v -0.040154 0.121025 0.531660
v -0.040154 0.121025 0.531660
v -0.040154 0.121025 0.531660
v 0.045222 0.052961 0.533098
v 0.045222 0.052961 0.533098
v -0.013228 0.071957 0.410433
v -0.013228 0.071957 0.410433
v 0.104854 0.279707 0.454756
v -0.181975 0.069254 0.519659
v -0.181975 0.069254 0.519659
v -0.181975 0.069254 0.519659
v -0.102648 0.136123 0.522023
v -0.102648 0.136123 0.522023
v -0.100445 0.067678 0.407388
v -0.100445 0.067678 0.407388
v -0.189004 0.253882 0.446153
vt 0.2500 -0.9297
vt 1.0000 -0.5000
vt 0.2500 -0.0664
vt 0.2500 -0.9297
vt 1.0000 -0.5000
vt 0.2500 -0.0664
vt 0.2500 -0.9297
vt 1.0000 -0.5000
vt 0.2500 -0.0664
vt 0.2500 -0.9297
vt 1.0000 -0.5000
vt 0.2500 -0.0664
vt 0.2500 -0.9297
vt 1.0000 -0.5000
vt 0.2500 -0.0664
vt 0.2500 -0.9297
vt 1.0000 -0.5000
vt 0.2500 -0.0664
vt 0.2500 -0.9297
vt 1.0000 -0.5000
vt 0.2500 -0.0664
vt 0.2500 -0.9297
vt 1.0000 -0.5000
vt 0.2500 -0.0664
vt 0.2500 -0.9297
vt 1.0000 -0.5000
vt 0.2500 -0.0664
vt 0.2500 -0.9297
vt 1.0000 -0.5000
vt 0.2500 -0.0664
vt 0.2500 -0.9297
vt 1.0000 -0.5000
vt 0.2500 -0.0664
vt 0.2500 -0.9297
vt 1.0000 -0.5000
vt 0.2500 -0.0664
vt 0.0000 1.0000
vt 1.0000 1.0000
vt 0.0000 1.0000
vt 1.0000 1.0000
vt 0.0000 0.7500
vt 1.0000 0.7500
vt 1.0000 3.0000
vt 0.0000 2.9141
vt 1.0000 2.9219
vt 0.0000 3.0000
vt 1.0000 3.0000
vt 0.0000 3.0000
vt 1.0000 2.0000
vt 0.0000 2.0000
vt 1.0000 2.0000
vt 0.0000 2.0000
vt 1.0000 2.2500
vt 0.0000 2.2500
vt 0.0000 0.5000
vt -1.0000 0.1641
vt 0.0000 0.1484
vt -1.0000 0.5000
vt 1.0000 0.5000
vt 1.0000 0.1953
vt 0.0000 3.0000
vt 0.0000 4.0000
vt 0.0000 3.0000
vt 0.0000 4.0000
vt 1.0000 3.0000
vt 1.0000 4.0000
vt 1.0000 4.0000
vt 1.0000 3.0000
vt 0.0000 1.0000
vt 0.0000 2.0000
vt 1.0000 2.0000
vt 1.0000 1.0000
vt 0.0000 3.0000
vt 0.0000 4.0000
vt 1.0000 4.0000
vt 1.0000 4.0000
vt 0.0000 0.0703
vt 1.0000 0.1094
vt -1.0000 0.0859
vt 1.0000 2.8203
vt 0.0000 2.8359
vt 2.0000 0.1797
vt 2.0000 0.0781
vt 1.0000 4.0000
vt 1.0000 3.0000
vt 0.0000 3.0000
vt 2.0000 0.5000
vt 1.0000 2.5000
vt 0.0000 2.5000
vt 0.0000 0.0000
vt 1.0000 0.0000
vt -1.0000 0.0000
vt 2.0000 0.0000
vt 2.0000 0.7500
vt -1.0000 0.7500
vt 0.0000 4.0000
vt 0.0000 4.0000
vt 0.1328 4.0000
vt 0.0000 3.0000
vt 0.0000 3.8633
vt 0.0000 4.0000
vt 1.0000 4.0000
vt 1.0000 3.0000
vt 1.0000 3.0000
vt 0.8633 3.0000
vt 0.0000 4.0000
vt 0.0000 4.0000
vt 0.1211 4.0000
vt 0.0000 3.8398
vt 0.7305 4.0000
vt 1.0000 4.0000
vt 1.0000 3.8281
vt 1.0000 3.0000
vt 2.0000 1.0000
vt -1.0000 1.0000
vt 0.0000 4.0000
vt 0.6641 0.0000
vt 1.0000 0.0000
vt 0.5000 1.0000
vt 0.3320 0.0000
vt 0.0000 0.0000
vt 0.6641 0.0000
vt 1.0000 0.0000
vt 0.5000 1.0000
vt 0.3320 0.0000
vt 0.0000 0.0000
vt 0.6641 0.0000
vt 1.0000 0.0000
vt 0.5000 1.0000
vt 0.3320 0.0000
vt 0.0000 0.0000
vt 0.6641 0.0000
vt 1.0000 0.0000
vt 0.5000 1.0000
vt 0.3320 0.0000
vt 0.0000 0.0000
vt 0.3320 0.0000
vt 0.5000 1.0000
vt 0.6641 0.0000
vt 1.0000 0.0000
vt 0.0000 0.0000
vt 0.3320 0.0000
vt 0.5000 1.0000
vt 0.6641 0.0000
vt 1.0000 0.0000
vt 0.0000 0.0000
vt 0.3320 0.0000
vt 0.5000 1.0000
vt 0.6641 0.0000
vt 1.0000 0.0000
vt 0.0000 0.0000
vt 0.3320 0.0000
vt 0.5000 1.0000
vt 0.6641 0.0000
vt 1.0000 0.0000
vt 0.5000 3.5000
vt 0.3320 0.0000
vt 0.6641 0.0000
vt 0.5000 1.0000
vt 0.0000 0.0000
vt 1.0000 4.0000
vt 0.0000 0.0000
vt 1.0000 0.0000
vt 0.5469 0.1133
vt 0.5586 0.0000
vt 0.0000 0.0859
vt 0.0000 0.0000
vt 1.0000 0.0000
vt 0.4961 0.0586
vt 0.0000 0.0000
vt 0.5195 0.8555
vt 1.0000 0.0000
vt 0.0000 0.0000
vt 0.3320 0.0000
vt 0.5000 1.0000
vt 0.6641 0.0000
vt 1.0000 0.0000
vt 0.0000 0.0000
vt 0.3320 0.0000
vt 0.5000 1.0000
vt 0.6641 0.0000
vt 1.0000 0.0000
vt 0.0000 0.0000
vt 0.3320 0.0000
vt 0.5000 1.0000
vt 0.6641 0.0000
vt 1.0000 0.0000
vt 0.0000 0.0000
vn 0.6951 -0.6787 -0.2369
vn -0.6076 -0.6283 -0.4859
vn -0.6620 0.6667 -0.3423
vn -0.6840 0.6220 0.3811
vn -0.6156 -0.7685 0.1743
vn 0.5752 -0.6974 0.4275
vn 0.7325 0.6235 0.2733
vn -0.6993 0.6782 0.2260
vn -0.6866 -0.6910 0.2260
vn 0.6934 -0.6880 0.2142
vn 0.8175 0.0932 -0.5683
vn 0.6222 0.6991 0.3523
vn 0.3551 0.0251 0.9344
vn 0.0074 -0.8138 0.5810
vn 0.7936 0.0287 0.6077
vn -0.0286 -0.4562 0.8894
vn 0.9987 0.0243 -0.0432
vn 0.0393 -0.9986 -0.0353
vn -0.8404 0.0671 -0.5378
vn -0.7277 0.6858 0.0019
vn -0.7263 0.6862 0.0391
vn -0.1040 0.8563 -0.5058
vn -0.9443 -0.0337 0.3274
vn -0.0414 0.9297 0.3658
vn -0.2144 0.2472 0.9449
vn -0.0493 0.8133 0.5797
vn -0.8320 -0.0282 0.5541
vn -0.2661 0.2390 0.9338
vn -0.6702 0.7407 -0.0481
vn -0.6742 0.7368 -0.0507
vn 0.9997 0.0225 0.0092
vn 0.6074 0.6787 0.4127
vn 0.8457 0.0743 0.5285
vn 0.6809 0.7319 -0.0256
vn 0.0713 -0.9970 -0.0289
vn -0.0098 -0.8766 0.4812
vn -0.0486 0.8141 0.5786
vn 0.5612 0.0144 0.8275
vn -0.0558 0.5887 0.8064
vn 0.7934 0.0284 0.6080
vn -0.6828 -0.0230 0.7302
vn 0.0154 -0.9350 0.3543
vn -0.0096 -0.5376 0.8431
vn -0.7997 -0.3418 0.4936
vn 0.8356 0.0285 -0.5485
vn -0.0083 0.8160 -0.5780
vn -0.7953 -0.0285 -0.6055
vn 0.0486 -0.8160 -0.5760
vn -0.0338 0.9425 0.3324
vn 0.9317 0.0314 0.3619
vn 0.0191 -0.9321 0.3617
vn 0.0443 -0.9394 -0.3399
vn 0.9945 0.0506 0.0915
vn 0.0273 -0.9936 0.1093
vn 0.6719 0.7395 0.0405
vn -0.7168 0.6667 0.2039
vn -0.7166 0.6664 0.2057
vn -0.6477 -0.6804 0.3427
vn -0.6869 -0.7266 0.0140
vn 0.0190 -0.9950 -0.0975
vn -0.9917 -0.0347 -0.1235
vn -0.0334 0.9911 -0.1291
vn -0.6779 -0.7299 -0.0877
vn -0.7187 0.6782 -0.1534
vn -0.7204 0.6764 -0.1535
vn 0.4184 0.0167 -0.9081
vn 0.0450 -0.3987 -0.9160
vn 0.3631 0.3623 -0.8584
vn -0.3232 -0.3789 -0.8672
vn -0.6225 -0.7817 -0.0380
vn 0.6208 0.7828 -0.0415
vn 0.2280 0.0263 -0.9733
vn 0.9875 0.1101 -0.1122
vn 0.5576 -0.5470 -0.6243
vn 0.0103 0.7515 -0.6597
vn 0.5111 0.5791 -0.6352
vn 0.9555 0.0330 -0.2930
vn 0.0562 -0.7540 -0.6544
vn -0.7511 -0.0316 -0.6594
vn -0.8120 -0.5053 -0.2919
vn -0.7895 0.3849 0.4780
vn 0.9520 0.0345 -0.3042
vn 0.9509 -0.0033 -0.3094
vn 0.6848 -0.6177 0.3866
vn 0.5704 0.6695 0.4757
vn 0.4831 -0.6258 0.6123
vn 0.0116 -0.7566 0.6538
vn -0.3970 -0.6546 0.6433
vn -0.8514 -0.0290 0.5237
vn -0.6195 -0.7849 -0.0103
vn 0.6198 0.7848 0.0033
vn 0.3135 0.0390 0.9488
vn -0.3065 0.4372 -0.8455
vn -0.6621 -0.6473 -0.3775
vn -0.8095 0.5317 0.2489
vn 0.3968 0.7091 0.5828
vn 0.0722 -0.0934 0.9930
vn 0.3161 0.3828 -0.8681
vn -0.5722 0.7782 -0.2587
vn 0.6744 0.6930 0.2547
vn 0.5213 -0.4875 0.7004
vn -0.1000 -0.0783 0.9919
vn 0.5082 -0.6174 -0.6005
vn 0.7085 0.6195 -0.3379
vn 0.7586 -0.3869 0.5242
vn -0.4264 -0.7406 0.5193
vn -0.2958 0.2483 0.9224
vn -0.5103 0.8017 0.3113
vn -0.6473 0.5524 -0.5252
vn -0.8304 -0.4585 0.3166
vn 0.1555 -0.1435 0.9774
vn 0.5904 -0.6979 -0.4053
vn 0.2457 -0.9001 0.3596
vn -0.6582 -0.7093 -0.2522
vn -0.9235 0.1720 0.3429
vn -0.7111 0.5351 -0.4560
vn 0.2520 -0.2697 0.9294
vn -0.4882 -0.6305 0.6034
vn 0.4128 -0.8864 -0.2092
vn 0.1979 0.0103 -0.9802
vn 0.7974 0.3584 -0.4855
vn 0.2011 0.2722 0.9409
vn 0.9136 -0.1045 0.3930
vn 0.4769 0.8636 -0.1636
vn 0.1603 0.1179 -0.9800
vn -0.7671 0.5170 -0.3797
vn -0.3137 0.3409 0.8862
vn 0.4445 0.6922 0.5685
vn -0.3525 0.9074 -0.2289
vn -0.1503 0.1325 -0.9797
vn -0.7841 -0.2551 -0.5658
vn -0.0340 -0.0113 0.9993
vn 0.3890 -0.7074 0.5901
vn -0.8694 0.3323 0.3656
vn -0.6028 -0.7749 -0.1900
vn 0.7276 -0.6168 -0.3001
vn 0.0962 -0.4620 0.8816
vn 0.9877 0.1545 -0.0249
vn 0.9798 0.1541 0.1272
vn 0.8940 0.1423 0.4248
vn 0.9301 0.0316 -0.3660
vn 0.8271 0.0278 -0.5613
vn 0.7729 0.0259 -0.6339
vn -0.7223 0.5425 -0.4288
vn 0.2151 -0.2514 0.9437
vn -0.3380 -0.8057 0.4864
vn 0.7042 -0.6909 -0.1636
vn 0.1372 -0.1056 -0.9849
vn 0.7057 0.6311 -0.3218
vn 0.2807 0.3100 0.9083
vn 0.8885 -0.1853 0.4198
vn 0.5679 0.7828 -0.2542
vn 0.1211 0.0110 -0.9926
vn -0.7333 0.5724 -0.3667
vn -0.3661 0.3373 0.8672
vn 0.1648 0.8571 0.4881
vn -0.6925 0.6520 -0.3087
vn -0.0240 0.1060 -0.9940
vn -0.6402 -0.6517 -0.4067
vn 0.3581 -0.9224 -0.1444
usemtl m0
s off
f 151/1/1 154/2/1 152/3/1
f 143/4/2 146/5/2 144/6/2
f 135/7/3 138/8/3 136/9/3
f 167/10/4 170/11/4 168/12/4
f 175/13/5 178/14/5 176/15/5
f 183/16/6 186/17/6 184/18/6
f 95/19/7 98/20/7 96/21/7
f 103/22/8 106/23/8 104/24/8
f 111/25/9 114/26/9 112/27/9
f 119/28/10 122/29/10 120/30/10
f 127/31/11 130/32/11 128/33/11
f 159/34/12 162/35/12 160/36/12
s 1
f 5/37/13 42/38/14 41/39/15
f 42/38/14 5/37/13 6/40/16
f 79/41/17 6/40/16 5/37/13
f 6/40/16 79/41/17 80/42/18
f 13/43/19 84/44/20 83/45/21
f 84/44/20 13/43/19 11/46/22
f 55/47/23 11/46/22 13/43/19
f 11/46/22 55/47/23 56/48/24
f 9/49/25 40/50/26 43/51/27
f 40/50/26 9/49/25 7/52/28
f 75/53/29 7/52/28 9/49/25
f 7/52/28 75/53/29 77/54/30
f 49/55/31 88/56/32 92/57/33
f 88/56/32 49/55/31 48/58/34
f 44/59/35 92/57/33 91/60/36
f 92/57/33 44/59/35 49/55/31
f 25/61/37 35/62/38 32/63/39
f 35/62/38 25/61/37 26/64/40
f 33/65/41 20/66/42 34/67/43
f 20/66/42 33/65/41 21/68/44
f 41/39/15 7/52/28 5/37/13
f 7/52/28 41/39/15 40/50/26
f 36/69/45 40/50/26 41/39/15
f 40/50/26 36/69/45 39/70/46
f 39/70/46 43/51/27 40/50/26
f 43/51/27 39/70/46 38/71/47
f 38/71/47 42/38/14 43/51/27
f 42/38/14 38/71/47 37/72/48
f 37/72/48 41/39/15 42/38/14
f 41/39/15 37/72/48 36/69/45
f 35/62/38 18/73/49 32/63/39
f 18/73/49 35/62/38 19/74/50
f 34/67/43 19/74/50 35/62/38
f 19/74/50 34/67/43 20/66/42
f 54/75/51 13/43/19 3/76/52
f 13/43/19 54/75/51 55/47/23
f 91/60/36 86/77/53 81/78/54
f 86/77/53 91/60/36 92/57/33
f 92/57/33 85/79/55 86/77/53
f 85/79/55 92/57/33 88/56/32
f 84/44/20 90/80/56 83/45/21
f 90/80/56 84/44/20 87/81/57
f 89/82/58 81/78/54 82/83/59
f 81/78/54 89/82/58 91/60/36
f 43/51/27 6/40/16 9/49/25
f 6/40/16 43/51/27 42/38/14
f 51/84/60 55/47/23 54/75/51
f 55/47/23 51/84/60 50/85/61
f 50/85/61 56/48/24 55/47/23
f 56/48/24 50/85/61 53/86/62
f 46/87/63 91/60/36 89/82/58
f 91/60/36 46/87/63 44/59/35
f 87/81/57 45/88/64 90/80/56
f 45/88/64 87/81/57 47/89/65
f 81/78/54 2/90/66 4/91/67
f 2/90/66 81/78/54 86/77/53
f 86/77/53 12/92/68 2/90/66
f 12/92/68 86/77/53 85/79/55
f 82/83/59 4/91/67 14/93/69
f 4/91/67 82/83/59 81/78/54
f 76/94/70 44/59/35 46/87/63
f 44/59/35 76/94/70 80/42/18
f 80/42/18 49/55/31 44/59/35
f 49/55/31 80/42/18 79/41/17
f 45/88/64 77/54/30 75/53/29
f 77/54/30 45/88/64 47/89/65
f 79/41/17 48/58/34 49/55/31
f 48/58/34 79/41/17 78/95/71
f 60/96/72 51/84/60 52/97/73
f 51/84/60 60/96/72 62/98/74
f 17/99/75 52/97/73 53/86/62
f 52/97/73 17/99/75 57/100/76
f 64/101/77 15/102/78 62/98/74
f 15/102/78 64/101/77 19/74/50
f 20/66/42 16/103/79 15/102/78
f 16/103/79 20/66/42 21/68/44
f 27/104/80 17/99/75 16/103/79
f 17/99/75 27/104/80 28/105/81
f 17/99/75 64/101/77 57/100/76
f 64/101/77 17/99/75 18/73/49
f 1/106/82 73/107/83 3/76/52
f 3/76/52 73/107/83 66/108/84
f 21/68/44 18/73/49 28/105/81
f 18/73/49 21/68/44 33/65/41
f 56/48/24 1/106/82 11/46/22
f 1/106/82 56/48/24 70/109/85
f 31/110/86 35/62/38 26/64/40
f 35/62/38 31/110/86 30/111/87
f 29/112/88 34/67/43 30/111/87
f 34/67/43 29/112/88 24/113/89
f 38/71/47 36/69/45 37/72/48
f 36/69/45 38/71/47 39/70/46
f 53/86/62 70/109/85 56/48/24
f 70/109/85 53/86/62 52/97/73
f 10/114/90 80/42/18 76/94/70
f 80/42/18 10/114/90 6/40/16
f 5/37/13 78/95/71 79/41/17
f 78/95/71 5/37/13 8/115/91
f 68/116/92 54/75/51 66/108/84
f 54/75/51 68/116/92 52/97/73
f 24/113/89 32/63/39 33/65/41
f 32/63/39 24/113/89 25/61/37
f 16/103/79 53/86/62 50/85/61
f 53/86/62 16/103/79 17/99/75
f 15/102/78 50/85/61 51/84/60
f 50/85/61 15/102/78 16/103/79
f 51/84/60 62/98/74 15/102/78
f 52/97/73 57/100/76 60/96/72
f 15/102/78 19/74/50 20/66/42
f 16/103/79 21/68/44 27/104/80
f 17/99/75 28/105/81 18/73/49
f 64/101/77 18/73/49 19/74/50
f 3/76/52 66/108/84 54/75/51
f 18/73/49 33/65/41 32/63/39
f 54/75/51 52/97/73 51/84/60
f 1/106/82 70/109/85 73/107/83
f 35/62/38 30/111/87 34/67/43
f 70/109/85 52/97/73 68/116/92
f 34/67/43 24/113/89 33/65/41
f 155/117/93 149/118/94 156/119/95
f 153/120/96 155/117/93 156/119/95
f 150/121/97 153/120/96 156/119/95
f 147/122/98 141/123/99 148/124/100
f 145/125/101 147/122/98 148/124/100
f 142/126/102 145/125/101 148/124/100
f 139/127/103 133/128/104 140/129/105
f 137/130/106 139/127/103 140/129/105
f 134/131/107 137/130/106 140/129/105
f 131/132/108 125/133/109 132/134/110
f 129/135/111 131/132/108 132/134/110
f 158/136/112 161/137/113 164/138/114
f 161/137/113 163/139/115 164/138/114
f 163/139/115 157/140/116 164/138/114
f 166/141/117 169/142/118 172/143/119
f 169/142/118 171/144/120 172/143/119
f 171/144/120 165/145/121 172/143/119
f 174/146/122 177/147/123 180/148/124
f 177/147/123 179/149/125 180/148/124
f 179/149/125 173/150/126 180/148/124
f 182/151/127 185/152/128 188/153/129
f 185/152/128 187/154/130 188/153/129
f 187/154/130 181/155/131 188/153/129
f 22/156/132 31/110/86 26/64/40
f 97/157/133 99/158/134 100/159/135
f 94/160/136 97/157/133 100/159/135
f 30/111/87 31/110/86 23/161/137
f 30/111/87 23/161/137 29/112/88
f 25/61/37 24/113/89 22/156/132
f 29/112/88 23/161/137 22/156/132
f 71/162/138 67/163/139 74/164/138
f 69/165/140 67/163/139 72/166/140
f 59/167/141 63/168/142 61/169/141
f 65/170/143 63/168/142 58/171/143
f 22/156/132 26/64/40 25/61/37
f 23/161/137 31/110/86 22/156/132
f 28/105/81 27/104/80 21/68/44
f 24/113/89 29/112/88 22/156/132
f 99/158/134 93/172/144 100/159/135
f 102/173/145 105/174/146 108/175/147
f 105/174/146 107/176/148 108/175/147
f 107/176/148 101/177/149 108/175/147
f 110/178/150 113/179/151 116/180/152
f 113/179/151 115/181/153 116/180/152
f 115/181/153 109/182/154 116/180/152
f 118/183/155 121/184/156 124/185/157
f 121/184/156 123/186/158 124/185/157
f 123/186/158 117/187/159 124/185/157
f 126/188/160 129/135/111 132/134/110
